HIERARCHY
ROOT Hips
{
  OFFSET -8.84179 20.0128 0.897337
  CHANNELS 6 Xposition Yposition Zposition Zrotation Xrotation Yrotation
  JOINT Bip01_Pelvis
  {
    OFFSET 0 0 0
    CHANNELS 6 Xposition Yposition Zposition Zrotation Xrotation Yrotation
    JOINT BN_Tail_01
    {
      OFFSET -1.24087 -0.718302 0
      CHANNELS 6 Xposition Yposition Zposition Zrotation Xrotation Yrotation
      JOINT BN_Tail_02
      {
        OFFSET 6.82381 0 0
        CHANNELS 6 Xposition Yposition Zposition Zrotation Xrotation Yrotation
        JOINT BN_Tail_03
        {
          OFFSET 8.76082 0 0
          CHANNELS 6 Xposition Yposition Zposition Zrotation Xrotation Yrotation
          JOINT BN_Tail_04
          {
            OFFSET 7.66999 0 0
            CHANNELS 6 Xposition Yposition Zposition Zrotation Xrotation Yrotation
            End Site
            {
              OFFSET 0 0 0
            }
          }
        }
      }
    }
    JOINT Bip01_Spine
    {
      OFFSET 1.33812 0.096014 0.0297562
      CHANNELS 6 Xposition Yposition Zposition Zrotation Xrotation Yrotation
      JOINT Bip01_R_Thigh
      {
        OFFSET -1.30135 0.103306 -2.49297
        CHANNELS 6 Xposition Yposition Zposition Zrotation Xrotation Yrotation
        JOINT Bip01_R_Calf
        {
          OFFSET 8.39601 0 0
          CHANNELS 6 Xposition Yposition Zposition Zrotation Xrotation Yrotation
          JOINT Bip01_R_HorseLink
          {
            OFFSET 9.35807 0 0
            CHANNELS 6 Xposition Yposition Zposition Zrotation Xrotation Yrotation
            JOINT Bip01_R_Foot
            {
              OFFSET 4.27819 0 0
              CHANNELS 6 Xposition Yposition Zposition Zrotation Xrotation Yrotation
              JOINT Bip01_R_Toe0
              {
                OFFSET 1.32445 2.68719 0
                CHANNELS 6 Xposition Yposition Zposition Zrotation Xrotation Yrotation
                JOINT Bip01_R_Toe0Nub
                {
                  OFFSET 0.282271 0 0
                  CHANNELS 6 Xposition Yposition Zposition Zrotation Xrotation Yrotation
                  End Site
                  {
                    OFFSET 0 0 0
                  }
                }
              }
            }
          }
        }
      }
      JOINT Bip01_L_Thigh
      {
        OFFSET -1.37978 -0.0398788 2.39225
        CHANNELS 6 Xposition Yposition Zposition Zrotation Xrotation Yrotation
        JOINT Bip01_L_Calf
        {
          OFFSET 8.39601 0 0
          CHANNELS 6 Xposition Yposition Zposition Zrotation Xrotation Yrotation
          JOINT Bip01_L_HorseLink
          {
            OFFSET 9.35808 0 0
            CHANNELS 6 Xposition Yposition Zposition Zrotation Xrotation Yrotation
            JOINT Bip01_L_Foot
            {
              OFFSET 4.27819 0 0
              CHANNELS 6 Xposition Yposition Zposition Zrotation Xrotation Yrotation
              JOINT Bip01_L_Toe0
              {
                OFFSET 1.32445 2.68719 0
                CHANNELS 6 Xposition Yposition Zposition Zrotation Xrotation Yrotation
                JOINT Bip01_L_Toe0Nub
                {
                  OFFSET 0.282267 0 0
                  CHANNELS 6 Xposition Yposition Zposition Zrotation Xrotation Yrotation
                  End Site
                  {
                    OFFSET 0 0 0
                  }
                }
              }
            }
          }
        }
      }
      JOINT Bip01_Spine1
      {
        OFFSET 4.77812 -0.00598526 -2.03848e-005
        CHANNELS 6 Xposition Yposition Zposition Zrotation Xrotation Yrotation
        JOINT Bip01_Spine2
        {
          OFFSET 7.52904 -0.00557518 -8.38637e-005
          CHANNELS 6 Xposition Yposition Zposition Zrotation Xrotation Yrotation
          JOINT Bip01_Neck
          {
            OFFSET 8.17986 0.436998 0.000127075
            CHANNELS 6 Xposition Yposition Zposition Zrotation Xrotation Yrotation
            JOINT Bip01_R_Clavicle
            {
              OFFSET -2.1244 -3.91239 -2.44847
              CHANNELS 6 Xposition Yposition Zposition Zrotation Xrotation Yrotation
              JOINT Bip01_R_UpperArm
              {
                OFFSET 6.62478 0 0
                CHANNELS 6 Xposition Yposition Zposition Zrotation Xrotation Yrotation
                JOINT Bip01_R_Forearm
                {
                  OFFSET 7.46098 0 0
                  CHANNELS 6 Xposition Yposition Zposition Zrotation Xrotation Yrotation
                  JOINT Bip01_R_Hand
                  {
                    OFFSET 7.80543 0 0
                    CHANNELS 6 Xposition Yposition Zposition Zrotation Xrotation Yrotation
                    JOINT Bip01_R_Finger0
                    {
                      OFFSET 2.2294 0.674378 0.135623
                      CHANNELS 6 Xposition Yposition Zposition Zrotation Xrotation Yrotation
                      JOINT Bip01_R_Finger0Nub
                      {
                        OFFSET 3.57154 0 0
                        CHANNELS 6 Xposition Yposition Zposition Zrotation Xrotation Yrotation
                        End Site
                        {
                          OFFSET 0 0 0
                        }
                      }
                    }
                  }
                }
              }
            }
            JOINT Bip01_L_Clavicle
            {
              OFFSET -2.28998 -4.09919 1.94072
              CHANNELS 6 Xposition Yposition Zposition Zrotation Xrotation Yrotation
              JOINT Bip01_L_UpperArm
              {
                OFFSET 6.62478 0 0
                CHANNELS 6 Xposition Yposition Zposition Zrotation Xrotation Yrotation
                JOINT Bip01_L_Forearm
                {
                  OFFSET 7.46098 0 0
                  CHANNELS 6 Xposition Yposition Zposition Zrotation Xrotation Yrotation
                  JOINT Bip01_L_Hand
                  {
                    OFFSET 7.80543 0 0
                    CHANNELS 6 Xposition Yposition Zposition Zrotation Xrotation Yrotation
                    JOINT Bip01_L_Finger0
                    {
                      OFFSET 2.2294 0.674378 -0.135623
                      CHANNELS 6 Xposition Yposition Zposition Zrotation Xrotation Yrotation
                      JOINT Bip01_L_Finger0Nub
                      {
                        OFFSET 3.57153 0 0
                        CHANNELS 6 Xposition Yposition Zposition Zrotation Xrotation Yrotation
                        End Site
                        {
                          OFFSET 0 0 0
                        }
                      }
                    }
                  }
                }
              }
            }
            JOINT Bip01_Neck1
            {
              OFFSET 3.78076 -0.00285482 1.52588e-005
              CHANNELS 6 Xposition Yposition Zposition Zrotation Xrotation Yrotation
              JOINT Bip01_Head
              {
                OFFSET 3.62738 0 0
                CHANNELS 6 Xposition Yposition Zposition Zrotation Xrotation Yrotation
                JOINT BN_Beard_L
                {
                  OFFSET 6.36381 2.6665 1.018
                  CHANNELS 6 Xposition Yposition Zposition Zrotation Xrotation Yrotation
                  End Site
                  {
                    OFFSET 0 0 0
                  }
                }
                JOINT BN_Beard_R
                {
                  OFFSET 6.3638 2.6665 -1.01806
                  CHANNELS 6 Xposition Yposition Zposition Zrotation Xrotation Yrotation
                  End Site
                  {
                    OFFSET 0 0 0
                  }
                }
                JOINT BN_Mouth
                {
                  OFFSET 0.165208 0.881832 -2.79663e-005
                  CHANNELS 6 Xposition Yposition Zposition Zrotation Xrotation Yrotation
                  JOINT BN_Thouge_01
                  {
                    OFFSET 4.3022 0.00850105 0
                    CHANNELS 6 Xposition Yposition Zposition Zrotation Xrotation Yrotation
                    JOINT BN_Thouge_02
                    {
                      OFFSET 1.50253 0 0
                      CHANNELS 6 Xposition Yposition Zposition Zrotation Xrotation Yrotation
                      End Site
                      {
                        OFFSET 0 0 0
                      }
                    }
                  }
                }
                JOINT BN_Ear_L
                {
                  OFFSET 1.27954 -1.37165 2.10918
                  CHANNELS 6 Xposition Yposition Zposition Zrotation Xrotation Yrotation
                  End Site
                  {
                    OFFSET 0 0 0
                  }
                }
                JOINT BN_Ear_R
                {
                  OFFSET 1.27953 -1.37164 -2.1093
                  CHANNELS 6 Xposition Yposition Zposition Zrotation Xrotation Yrotation
                  End Site
                  {
                    OFFSET 0 0 0
                  }
                }
                JOINT Bip01_HeadNub
                {
                  OFFSET 7.94507 0 0
                  CHANNELS 6 Xposition Yposition Zposition Zrotation Xrotation Yrotation
                  End Site
                  {
                    OFFSET 0 0 0
                  }
                }
              }
            }
          }
        }
      }
    }
  }
}
MOTION
Frames:	4
Frame Time:	0.0333333
-8.74565 20.9196 1.02396 176.518 -90 -90 0 0 0 -88.511 4.38177 -88.7336 -1.24087 -0.718302 2.5034e-006 52.3416 0.146788 -179.141 6.82381 -1.90735e-006 2.5034e-006 -36.2781 -0.167449 -1.84634 8.76082 6.67572e-006 1.19209e-007 -35.9565 -0.011563 10.1455 7.66999 -3.8147e-006 -8.88178e-016 -30.0387 0.0184192 10.1307 1.33812 0.096014 0.0297562 5.42208 -1.67875 0.919703 -1.30135 0.103306 -2.49297 -97.8191 -6.63193 -177.669 8.39601 -4.76837e-007 -2.38419e-007 -45.5955 -5.31587e-006 1.98089e-005 9.35807 -2.86102e-006 8.88179e-016 41.3514 -3.94089e-006 -1.91443e-005 4.27819 0 0 -0.519103 -8.50586 -2.66097 1.32445 2.68719 0 87.8133 -0.001632 0.065234 0.282271 1.11022e-016 -1.19209e-007 1.57184e-007 -4.85314e-020 4.85314e-020 -1.37978 -0.0398788 2.39225 -135.429 6.32076 -175.226 8.39601 0 4.44089e-016 -76.4002 -4.13926e-006 1.09994e-005 9.35808 -1.77636e-015 0 76.0972 -1.42294e-005 -1.41333e-005 4.27819 2.98023e-006 0 -95.4357 2.68344 5.15141 1.32445 2.68719 0 90 3e-006 -1.00179e-005 0.282267 4.76838e-007 0 -180 -1.00179e-005 -9.99999e-007 4.77812 -0.00598526 -2.03848e-005 3.30611 0.204002 -3.49036 7.52904 -0.00557518 -8.38637e-005 -10.0183 0.83742 -4.50519 8.17986 0.436998 0.000127077 -38.5663 -2.43521 2.1605 -2.1244 -3.91239 -2.44847 -131.582 -71.8957 150.478 6.62478 0 -3.8147e-006 79.5918 7.06454 -113.998 7.46098 -4.44089e-016 5.96047e-008 -51.7678 -2.3622e-006 4.17698e-006 7.80543 0 -1.11022e-016 8.33267 0.279984 -0.992684 2.2294 0.674378 0.135623 -77.7826 -7.03734 1.53317 3.57154 0 -1.11022e-016 -180 -9.94405e-006 -9.94813e-006 -2.28998 -4.09919 1.94072 -150.756 70.8919 -100.386 6.62478 -8.88179e-016 2.86102e-006 59.5482 -4.27498 97.0128 7.46098 1.77636e-015 8.9407e-008 -40.991 8.61969e-006 1.28385e-005 7.80543 -1.19209e-007 5.96047e-008 13.2223 -3.94078 -0.743516 2.2294 0.674378 -0.135623 -32.3317 0.455876 -2.20397 3.57153 0 0 5.76655e-008 -2.11513e-008 2.0839e-008 3.78076 -0.00285482 1.52588e-005 8.85423 -0.289105 -1.84558 3.62738 9.53674e-007 -1.19209e-007 41.1494 0.98782 3.64664 6.36381 2.6665 1.018 74.1242 -17.7722 -106.433 6.3638 2.6665 -1.01806 -105.876 -17.7725 73.5673 0.165208 0.881832 -2.7962e-005 -155.121 -0.0236816 -179.995 4.3022 0.00850105 9.31323e-009 15.0149 -2.11751e-005 -1.22217e-005 1.50253 -1.90735e-006 -1.02445e-008 11.687 1.18288e-005 7.80328e-006 1.27954 -1.37165 2.10918 -131.38 -55.0077 -56.3881 1.27953 -1.37164 -2.1093 48.6198 -55.0073 123.612 7.94507 -5.72205e-006 -1.21072e-008 -2.10907e-007 7.28492e-009 -6.95477e-009 
-8.74528 20.9405 1.01549 90.0019 -89.8936 -176.516 0 0 0 -88.0413 4.38684 -88.2602 -1.24087 -0.718302 2.5034e-006 52.3617 0.142275 -179.224 6.82381 -1.90735e-006 2.5034e-006 -35.7851 -0.160473 -1.78454 8.76082 6.67572e-006 1.19209e-007 -35.6626 0.0847563 10.1315 7.66999 -3.8147e-006 -4.44089e-016 -28.268 0.0491309 11.5581 1.33812 0.096014 0.0297562 5.0837 -2.15797 0.726073 -1.30135 0.103306 -2.49297 -96.0206 -6.056 -177.558 8.39601 -4.76837e-007 -2.38419e-007 -44.0746 4.04265e-006 1.08109e-005 9.35807 -2.86102e-006 -1.77636e-015 40.3392 -3.5901e-006 -1.92205e-005 4.27819 -3.55271e-015 1.77636e-015 0.00370146 -8.16007 -2.66922 1.32445 2.68719 3.76765e-012 87.9572 -0.00148359 0.0626937 0.282271 -5.4401e-015 -1.19209e-007 1.57184e-007 -1.55301e-018 -7.76503e-019 -1.37978 -0.0398788 2.39225 -136.334 6.83917 -175.007 8.39601 7.99361e-015 2.22045e-016 -74.5763 -7.47749e-006 1.21057e-005 9.35808 0 1.77636e-015 73.1772 3.79285e-006 -9.713e-006 4.27819 2.98023e-006 -3.10862e-015 -92.3986 2.93825 5.47344 1.32445 2.68719 9.00146e-012 90 2.9975e-006 -1.00181e-005 0.282267 4.76838e-007 -8.88178e-016 -180 -1.00179e-005 -9.99999e-007 4.77812 -0.00598526 -2.03848e-005 3.32244 -0.10169 -3.3261 7.52904 -0.00557518 -8.38637e-005 -9.17707 1.17295 -4.96948 8.17986 0.436998 0.000127077 -39.2174 -2.59387 2.07303 -2.1244 -3.91239 -2.44847 -130.744 -72.0107 150.556 6.62478 -5.32907e-015 -3.8147e-006 79.6544 6.47504 -114.158 7.46098 1.37668e-014 5.96047e-008 -50.9322 -5.63994e-006 6.9505e-006 7.80543 -1.42109e-014 -8.88179e-016 7.82142 0.505996 -1.96083 2.2294 0.674378 0.135623 -79.2927 -7.8342 1.57685 3.57154 -1.9984e-015 -7.21645e-016 -180 -9.94405e-006 -9.94813e-006 -2.28998 -4.09919 1.94072 -150.138 70.7362 -102.729 6.62478 2.66454e-015 2.86102e-006 59.5094 -1.90215 97.7059 7.46098 -1.06581e-014 8.9407e-008 -44.3089 8.03334e-006 1.3127e-005 7.80543 -1.19209e-007 5.96047e-008 15.8603 -3.93265 -0.282104 2.2294 0.674378 -0.135623 -29.6927 0.532358 -2.48015 3.57153 -8.43771e-015 -1.33227e-015 5.76655e-008 -2.11513e-008 2.0839e-008 3.78076 -0.00285482 1.52588e-005 8.75237 -0.253222 -1.30214 3.62738 9.53674e-007 -1.19209e-007 41.7052 0.758401 3.36297 6.36381 2.6665 1.018 74.0077 -17.7987 -106.298 6.3638 2.6665 -1.01806 -105.772 -17.86 73.7694 0.165208 0.881832 -2.7962e-005 -155.112 1.52588e-005 -180 4.3022 0.00850105 9.314e-009 15.0149 -2.11711e-005 -1.22231e-005 1.50253 -1.90735e-006 -1.02446e-008 11.687 1.18318e-005 7.80306e-006 1.27954 -1.37165 2.10918 -131.593 -55.0945 -56.1645 1.27953 -1.37164 -2.1093 48.2022 -54.7309 123.756 7.94507 -5.72205e-006 -1.21072e-008 -2.10907e-007 7.28492e-009 -6.95477e-009 
-8.74851 20.9382 0.999152 90.0012 -89.7317 -176.517 0 0 0 -87.5453 4.38052 -87.745 -1.24087 -0.718302 2.5034e-006 52.4156 0.130987 -179.315 6.82381 -1.90735e-006 2.5034e-006 -35.2826 -0.14188 -1.61992 8.76082 6.67572e-006 1.19209e-007 -34.8506 0.199969 10.0908 7.66999 -3.8147e-006 -3.9968e-015 -26.2555 0.132242 13.0525 1.33812 0.096014 0.0297562 4.59143 -2.66487 0.529362 -1.30135 0.103306 -2.49297 -94.2873 -5.44222 -177.481 8.39601 -4.76837e-007 -2.38419e-007 -42.9073 1.27521e-006 1.39229e-005 9.35807 -2.86102e-006 -1.77636e-015 39.5054 1.40851e-005 1.79825e-006 4.27819 -5.32907e-015 1.33227e-015 0.518059 -7.7639 -2.67814 1.32445 2.68719 3.86935e-012 88.352 -0.00114 0.055693 0.282271 -1.5099e-014 -1.19209e-007 1.57184e-007 1.2424e-017 7.76503e-019 -1.37978 -0.0398789 2.39225 -137.128 7.76678 -174.56 8.39601 5.32907e-015 2.22045e-016 -72.0938 1.8917e-005 3.97847e-006 9.35808 -1.24345e-014 2.22045e-016 68.4578 -1.20436e-005 -1.61131e-005 4.27819 2.98023e-006 -5.77316e-015 -87.8258 3.47707 6.18214 1.32445 2.68719 -1.10347e-011 90 2.9954e-006 -1.00177e-005 0.282267 4.76838e-007 0 -180 -1.00179e-005 -9.99999e-007 4.77812 -0.00598526 -2.03848e-005 3.23967 -0.449242 -3.09156 7.52904 -0.00557518 -8.38637e-005 -7.99091 1.48089 -5.35524 8.17986 0.436998 0.000127077 -39.9321 -2.69903 1.89405 -2.1244 -3.91239 -2.44847 -130.185 -72.0838 150.382 6.62478 -1.77636e-015 -3.8147e-006 79.6205 6.37756 -114.35 7.46098 1.59872e-014 5.96047e-008 -49.6077 -7.02785e-007 3.03053e-006 7.80543 -1.77636e-014 -1.66533e-015 7.03967 0.148915 -3.43373 2.2294 0.674378 0.135623 -80.5195 -9.06308 2.09765 3.57154 -6.88339e-015 -1.77636e-015 -180 -9.94405e-006 -9.94813e-006 -2.28998 -4.09919 1.94072 -149.152 70.5431 -105.788 6.62478 9.76997e-015 2.86102e-006 59.5264 0.674486 98.693 7.46098 -5.32907e-015 8.9407e-008 -48.2616 1.45731e-005 6.87746e-006 7.80543 -1.19209e-007 5.96047e-008 18.328 -3.58163 -0.0863372 2.2294 0.674378 -0.135623 -28.2458 0.684394 -3.07592 3.57153 -7.10544e-015 -2.77556e-015 5.76655e-008 -2.11513e-008 2.0839e-008 3.78076 -0.00285482 1.52588e-005 8.54579 -0.227637 -0.512557 3.62738 9.53674e-007 -1.19209e-007 42.3284 0.432198 2.78295 6.36381 2.6665 1.018 73.6914 -17.8663 -105.932 6.3638 2.6665 -1.01806 -105.487 -18.0878 74.3223 0.165208 0.881832 -2.79623e-005 -155.087 1.52588e-005 -180 4.3022 0.00850105 9.31271e-009 15.0149 -2.11661e-005 -1.22208e-005 1.50253 -1.90735e-006 -1.02445e-008 11.687 1.18324e-005 7.80579e-006 1.27954 -1.37165 2.10918 -131.808 -55.1301 -55.8415 1.27953 -1.37164 -2.1093 47.677 -54.4535 123.931 7.94507 -5.72205e-006 -1.21072e-008 -2.10907e-007 7.28492e-009 -6.95477e-009 
-8.75451 20.9165 0.976254 90.0006 -89.5305 -176.517 0 0 0 -87.0149 4.36712 -87.181 -1.24087 -0.718302 2.5034e-006 52.4995 0.113733 -179.413 6.82381 -1.90735e-006 2.5034e-006 -34.7758 -0.113492 -1.3691 8.76082 6.67572e-006 1.19209e-007 -33.5974 0.331884 10.0217 7.66999 -3.8147e-006 -3.9968e-015 -24.0097 0.26133 14.6194 1.33812 0.096014 0.0297562 3.97754 -3.19732 0.299058 -1.30135 0.103306 -2.49297 -92.5829 -4.80208 -177.441 8.39601 -4.76837e-007 -2.38419e-007 -42.0038 6.78396e-006 8.00733e-006 9.35807 -2.86102e-006 -2.66454e-015 38.8001 8.69195e-006 -4.73932e-006 4.27819 -7.10543e-015 1.77636e-015 1.03844 -7.3266 -2.68692 1.32445 2.68719 1.19527e-012 88.9487 -0.000668999 0.045117 0.282271 -3.44169e-015 -1.19209e-007 1.57184e-007 -6.21202e-018 -1.16475e-018 -1.37978 -0.0398789 2.39225 -137.802 8.97271 -173.961 8.39601 3.55271e-015 -8.88178e-016 -69.0909 -6.6084e-006 1.26679e-005 9.35808 -3.55272e-015 0 62.501 6.48026e-006 -8.81252e-006 4.27819 2.98023e-006 -1.02141e-014 -82.1315 4.29128 7.10552 1.32445 2.68719 -3.01565e-011 90 2.99516e-006 -1.00173e-005 0.282267 4.76838e-007 4.44089e-016 -180 -1.00179e-005 -9.99999e-007 4.77812 -0.00598526 -2.03848e-005 3.08104 -0.832197 -2.80165 7.52904 -0.00557518 -8.38637e-005 -6.55499 1.76748 -5.67984 8.17986 0.436998 0.000127076 -40.6774 -2.75968 1.64142 -2.1244 -3.91239 -2.44847 -129.866 -72.1308 149.931 6.62478 3.55271e-015 -3.8147e-006 79.4924 6.69417 -114.554 7.46098 1.90958e-014 5.96047e-008 -47.9358 9.76527e-007 1.61385e-006 7.80543 -1.06581e-014 -1.11022e-015 6.05973 -0.59679 -5.18749 2.2294 0.674378 0.135623 -81.5407 -10.588 2.89452 3.57154 -3.77476e-015 -4.996e-016 -180 -9.94405e-006 -9.94813e-006 -2.28998 -4.09919 1.94072 -147.897 70.3088 -109.434 6.62478 1.24345e-014 2.86102e-006 59.5451 3.39492 99.9276 7.46098 -1.24345e-014 8.9407e-008 -52.7468 1.04518e-005 1.04467e-005 7.80543 -1.19209e-007 5.96047e-008 20.6947 -2.97938 -0.108173 2.2294 0.674378 -0.135623 -27.6682 0.891392 -3.90864 3.57153 -8.8818e-015 -2.22045e-016 5.76655e-008 -2.11513e-008 2.0839e-008 3.78076 -0.00285482 1.52588e-005 8.25977 -0.212689 0.45025 3.62738 9.53674e-007 -1.19209e-007 42.9801 0.0236502 1.99435 6.36381 2.6665 1.018 73.1972 -17.9596 -105.358 6.3638 2.6665 -1.01806 -105.029 -18.4139 75.1959 0.165208 0.881832 -2.79626e-005 -155.047 1.52588e-005 -180 4.3022 0.00850105 9.31013e-009 15.0149 -2.11583e-005 -1.22163e-005 1.50253 -1.90735e-006 -1.02445e-008 11.687 1.18325e-005 7.81077e-006 1.27954 -1.37165 2.10918 -132.027 -55.122 -55.428 1.27953 -1.37164 -2.1093 47.0558 -54.1691 124.133 7.94507 -5.72205e-006 -1.21072e-008 -2.10907e-007 7.28492e-009 -6.95477e-009 
